# xmcd
#
# Track frame offsets: 
#        150
#        15245
#        26205
#        38165
#        51387
#        64400
#        74225
#        85377
#        100440
#        112775
#        125100
#        138442
#        150382
#        161982
#        172702
#        182785
#
# Disc length: 2661 seconds
#
# Revision: 3
# Processed by: cddbd v1.5.2PL0 Copyright (c) Steve Scherf et al.
# Submitted via: ExactAudioCopy v1.1
#
DISCID=e20a6310
DTITLE=Various Artist - The Country Collection Vol. 01
DYEAR=1900
DGENRE=Country
TTITLE0=Kenny Rogers - Four The Good Times
TTITLE1=Johnny Cash - I Love You Because
TTITLE2=Don Williams - Follow Me Back To Louisville
TTITLE3=Willie Nelson - You'll Always Have Someone
TTITLE4=Kenny Rogers - Ruby....
TTITLE5=Johnny Cash - Ballad Of A Teenage Queen
TTITLE6=Don Williams - Storybook Children
TTITLE7=Willie Nelson - And So Will You My Love
TTITLE8=Kenny Rogers - Reuben James
TTITLE9=Johnny Cash - Next In Line
TTITLE10=Don Williams - Where Do We Go From Here
TTITLE11=Willie Nelson - I Hope So
TTITLE12=Kenny Rogers - Poem For My Lady
TTITLE13=Johnny Cash - Cold Cold Heart
TTITLE14=Don Williams - Take My Hand For A While
TTITLE15=Willie Nelson - I Let My Mind Wonder
EXTD=
EXTT0=
EXTT1=
EXTT2=
EXTT3=
EXTT4=
EXTT5=
EXTT6=
EXTT7=
EXTT8=
EXTT9=
EXTT10=
EXTT11=
EXTT12=
EXTT13=
EXTT14=
EXTT15=
PLAYORDER=
